# xmcd CD database file
#
# Track frame offsets:
#	150
#	14720
#	28193
#	42763
#	57019
#	70649
#	84435
#	98535
#	112948
#	127518
#	141931
#	156031
#	171071
#	186111
#	199270
#	212743
#	227940
#	243450
#	254102
#	267105
#	280108
#
# Disc length: 3935 seconds
#
# Revision: 0
# Processed by: cddbd v1.5.1PL2 Copyright (c) Steve Scherf et al.
# Submitted via: CDex 1.51
#
DISCID=200f5d15
DTITLE=Buddy Johnson - Jukebox Hits: 1940-1951
DYEAR=2004
DGENRE=Jazz
TTITLE0=You Won't Let Me Go
TTITLE1=Please Mr. Johnson
TTITLE2=Boogie Woogie's Mother-In-Law
TTITLE3=I Wonder Who's Boogieing My Woogie Now
TTITLE4=I Ain't Mad With You
TTITLE5=Let's Beat Out Some Love
TTITLE6=Baby Don't You Cry
TTITLE7=When My Man Comes Home
TTITLE8=I Still Love You
TTITLE9=That's the Stuff You Gotta Watch
TTITLE10=Fine Brown Frame
TTITLE11=Since I Fell for You
TTITLE12=They All Say I'm The Biggest Fool
TTITLE13=Walk 'Em
TTITLE14=You'll Get Them Blues
TTITLE15=Far Cry
TTITLE16=I Don't Care Who Knows
TTITLE17=Did You See Jackie Robinson Hit That Ball?
TTITLE18=Because, Pt. 1
TTITLE19=Because, Pt. 2
TTITLE20=I'm Gonna Jump in the River
EXTD=YEAR: 2004
EXTT0=
EXTT1=
EXTT2=
EXTT3=
EXTT4=
EXTT5=
EXTT6=
EXTT7=
EXTT8=
EXTT9=
EXTT10=
EXTT11=
EXTT12=
EXTT13=
EXTT14=
EXTT15=
EXTT16=
EXTT17=
EXTT18=
EXTT19=
EXTT20=
PLAYORDER=
